<svg width="28" height="28" viewBox="0 0 28 28" fill="none" xmlns="http://www.w3.org/2000/svg">
  <path d="M13.9502 0C17.4302 0 20.6134 1.27656 23.0566 3.38379L25.3857 0.950195L26.7588 2.26367L15.0537 14.5L13.6367 14.6064V13.2324L16.8818 9.83887C16.0549 9.24813 15.0439 8.90039 13.9502 8.90039C11.1612 8.90039 8.90039 11.1612 8.90039 13.9502C8.90039 16.7392 11.1612 19 13.9502 19C16.7392 19 19 16.7392 19 13.9502C19 13.4255 19.4255 13 19.9502 13C20.4749 13 20.9004 13.4255 20.9004 13.9502C20.9004 17.7886 17.7886 20.9004 13.9502 20.9004C10.1118 20.9004 7 17.7886 7 13.9502C7 10.1118 10.1118 7 13.9502 7C15.553 7 17.0287 7.54552 18.2041 8.45703L21.7402 4.76074C19.6388 2.97731 16.9219 1.90039 13.9502 1.90039C7.29516 1.90039 1.90039 7.29516 1.90039 13.9502C1.90039 20.6052 7.29516 26 13.9502 26C20.6052 26 26 20.6052 26 13.9502C26 12.1263 25.5954 10.3996 24.8721 8.85254C24.65 8.37741 24.8551 7.81218 25.3301 7.58984C25.8054 7.36761 26.3715 7.57257 26.5938 8.04785C27.4324 9.84156 27.9004 11.8426 27.9004 13.9502C27.9004 21.6546 21.6546 27.9004 13.9502 27.9004C6.24582 27.9004 0 21.6546 0 13.9502C0 6.24582 6.24582 0 13.9502 0Z" fill="black"/>
</svg>
