<svg width="35" height="28" viewBox="0 0 35 28" fill="none" xmlns="http://www.w3.org/2000/svg">
<path d="M29.3853 8.34457C29.2595 8.08128 29.0343 7.87876 28.7591 7.78154C28.484 7.68433 28.1815 7.7004 27.9182 7.82621C27.6549 7.95202 27.4524 8.17726 27.3552 8.4524C27.258 8.72753 27.2741 9.03001 27.3999 9.2933L27.3999 9.29336C28.5588 11.7143 28.7823 14.478 28.0276 17.0537C27.2729 19.6295 25.5932 21.8355 23.3111 23.2483C21.029 24.661 18.3054 25.1808 15.6634 24.7077C13.0214 24.2347 10.6473 22.8022 8.99716 20.6855C7.34697 18.5687 6.53703 15.9169 6.72291 13.2393C6.90878 10.5618 8.07735 8.04727 10.0042 6.17881C11.931 4.31034 14.4803 3.21965 17.1623 3.11621C19.8077 3.01417 22.3983 3.87975 24.4502 5.54869L21.7452 8.25362C20.4636 7.31975 18.9054 6.84131 17.3189 6.89613C15.7035 6.95195 14.1555 7.55728 12.9308 8.61207C11.706 9.66687 10.8778 11.108 10.5831 12.6972C10.2884 14.2865 10.5447 15.9287 11.3098 17.3525C12.0748 18.7764 13.3028 19.8965 14.7908 20.5279C16.2787 21.1592 17.9375 21.264 19.4931 20.8248C21.0486 20.3857 22.4078 19.4289 23.3459 18.1126C24.284 16.7964 24.7449 15.1994 24.6524 13.5857C24.6443 13.4413 24.6078 13.2999 24.545 13.1696C24.4823 13.0393 24.3944 12.9226 24.2866 12.8262C24.0687 12.6316 23.7824 12.5314 23.4907 12.5478C23.3463 12.556 23.2049 12.5925 23.0745 12.6552C22.9442 12.718 22.8275 12.8059 22.7311 12.9137C22.6348 13.0216 22.5606 13.1474 22.5128 13.284C22.465 13.4205 22.4446 13.5651 22.4528 13.7096L22.4528 13.7096C22.5155 14.8112 22.2046 15.9016 21.5704 16.8045C20.9362 17.7074 20.0159 18.3698 18.9584 18.6845C17.9009 18.9993 16.7682 18.9479 15.7435 18.5387C14.7188 18.1295 13.8623 17.3865 13.3124 16.4299C12.7626 15.4734 12.5517 14.3592 12.7139 13.2679C12.8761 12.1765 13.4018 11.1718 14.2061 10.4165C15.0103 9.66112 16.0459 9.19929 17.1453 9.10576C18.2038 9.0157 19.2618 9.27216 20.1604 9.83466L16.7831 13.212C16.5767 13.4184 16.4608 13.6983 16.4608 13.9902C16.4608 14.2821 16.5767 14.562 16.7831 14.7684C16.9895 14.9748 17.2695 15.0907 17.5613 15.0907C17.8532 15.0907 18.1332 14.9748 18.3396 14.7684L30.3396 2.7684C30.5459 2.562 30.6619 2.28207 30.6619 1.99019C30.6619 1.6983 30.5459 1.41837 30.3396 1.21197C30.1332 1.00558 29.8532 0.889629 29.5613 0.889629C29.2695 0.889629 28.9895 1.00558 28.7831 1.21197L28.7831 1.21199L26.0146 3.98174C23.5629 1.91178 20.4363 0.811864 17.2265 0.892412C13.9859 0.973734 10.8903 2.25257 8.53706 4.48209C6.18386 6.71162 4.73992 9.73379 4.48394 12.9653C4.22795 16.1969 5.17806 19.4087 7.1509 21.9809C9.12373 24.5531 11.9794 26.3034 15.1668 26.8939C18.3543 27.4844 21.6474 26.8733 24.4108 25.1785C27.1742 23.4838 29.2118 20.8255 30.1304 17.7167C31.0491 14.608 30.7836 11.2691 29.3853 8.34457ZM29.3853 8.34457L29.2951 8.38769L29.3853 8.34455C29.3853 8.34456 29.3853 8.34456 29.3853 8.34457Z" fill="black" stroke="black" stroke-width="0.2"/>
</svg>
