<svg width="27" height="30" viewBox="0 0 27 30" fill="none" xmlns="http://www.w3.org/2000/svg">
  <path fill-rule="evenodd" clip-rule="evenodd" d="M13.5361 0C14.0533 3.98968e-05 14.5494 0.205628 14.915 0.571289L21.3291 6.98535C21.6948 7.35101 21.9004 7.84714 21.9004 8.36426V15.9502H20V8.90039H15.9502C14.321 8.90039 13 7.57944 13 5.9502V1.90039H1.9502C1.92258 1.90039 1.90039 1.92258 1.90039 1.9502V24.9502C1.90039 24.9778 1.92258 25 1.9502 25H11.9502V26.9004H1.9502C0.87324 26.9004 0 26.0272 0 24.9502V1.9502C2.57681e-07 0.873241 0.87324 0 1.9502 0H13.5361ZM14.9004 5.9502C14.9004 6.53009 15.3703 7 15.9502 7H18.6562L14.9004 3.24414V5.9502Z" fill="black"/>
  <path d="M21.9891 23.4251L26.682 28.118L25.1179 29.6821L20.425 24.9892L15.7322 29.6821L14.1681 28.118L18.861 23.4251L14.1681 18.7323L15.7322 17.1682L20.425 21.8611L25.1179 17.1682L26.682 18.7323L21.9891 23.4251Z" fill="black"/>
</svg>
