<svg width="30" height="33" viewBox="0 0 30 33" fill="none" xmlns="http://www.w3.org/2000/svg">
  <path d="M22.9004 17.9004C22.9004 17.6242 23.1242 17.4004 23.4004 17.4004H24.4004C24.6765 17.4004 24.9004 17.6242 24.9004 17.9004V18.9004C24.9004 19.1765 24.6765 19.4004 24.4004 19.4004H23.4004C23.1242 19.4004 22.9004 19.1765 22.9004 18.9004V17.9004Z" fill="black"/>
  <path fill-rule="evenodd" clip-rule="evenodd" d="M14.4863 0C14.9902 3.99991e-05 15.4738 0.200357 15.8301 0.556641L21.2441 5.9707C21.6004 6.32699 21.8007 6.8106 21.8008 7.31445V13H26.9004C28.502 13 29.8008 14.2988 29.8008 15.9004V23.9004C29.8008 25.502 28.502 26.8008 26.9004 26.8008H21.8008V30.9004C21.8008 31.9497 20.9497 32.8008 19.9004 32.8008H9.90039C8.85105 32.8008 8 31.9497 8 30.9004V26.8008H2.90039C1.29877 26.8008 3.22085e-08 25.502 0 23.9004V15.9004C1.28836e-07 14.2988 1.29876 13 2.90039 13H8V1.90039C8 0.85105 8.85105 6.44136e-08 9.90039 0H14.4863ZM9.80078 30.9004C9.80078 30.9556 9.84516 31 9.90039 31H19.9004C19.9556 31 20 30.9556 20 30.9004V22.8008H9.80078V30.9004ZM2.90039 14.8008C2.29288 14.8008 1.80078 15.2929 1.80078 15.9004V23.9004C1.80078 24.5079 2.29288 25 2.90039 25H8V21H21.8008V25H26.9004C27.5079 25 28 24.5079 28 23.9004V15.9004C28 15.2929 27.5079 14.8008 26.9004 14.8008H2.90039ZM9.90039 1.80078C9.84516 1.80078 9.80078 1.84516 9.80078 1.90039V13H20V7.80078H15.9004C14.851 7.80078 14 6.94973 14 5.90039V1.80078H9.90039ZM15.8008 5.90039C15.8008 5.95562 15.8452 6 15.9004 6H18.7266L15.8008 3.07422V5.90039Z" fill="black"/>
  <path d="M18.9004 24.1504V25.6504H10.9004V24.1504H18.9004Z" fill="black"/>
  <path d="M18.9004 27.1504V28.6504H10.9004V27.1504H18.9004Z" fill="black"/>
</svg>
