<svg width="30" height="24" viewBox="0 0 30 24" fill="none" xmlns="http://www.w3.org/2000/svg">
<path d="M17.418 10.8444L19.1284 4.82846L19.1286 4.82852L19.13 4.82208C19.2443 4.28906 19.238 3.73723 19.1114 3.20699C18.9849 2.67674 18.7413 2.18151 18.3986 1.75756C18.056 1.3336 17.6228 0.991661 17.1309 0.756768C16.6389 0.521874 16.1007 0.399976 15.5556 0.4H13.7778L13.7778 0.4C13.2327 0.400146 12.6946 0.522169 12.2028 0.757137C11.711 0.992104 11.278 1.33407 10.9354 1.758C10.5929 2.18193 10.3494 2.6771 10.223 3.20726C10.0965 3.73742 10.0902 4.28916 10.2044 4.82208L10.2042 4.82212L10.206 4.82844L11.9154 10.8444H5.77778C5.27976 10.8444 4.80214 11.0423 4.44999 11.3944C4.09784 11.7466 3.9 12.2242 3.9 12.7222V17.1667C3.9 17.6647 4.09784 18.1423 4.44999 18.4945C4.80214 18.8466 5.27976 19.0444 5.77778 19.0444H23.5556C24.0536 19.0444 24.5312 18.8466 24.8833 18.4945C25.2355 18.1423 25.4333 17.6647 25.4333 17.1667V12.7222C25.4333 12.2242 25.2355 11.7466 24.8833 11.3944C24.5312 11.0423 24.0536 10.8444 23.5556 10.8444H17.418ZM13.7777 2.37778H13.7778H15.5555C15.5555 2.37778 15.5555 2.37778 15.5556 2.37778C15.8056 2.37787 16.0526 2.43386 16.2782 2.54167C16.5039 2.64948 16.7026 2.80638 16.8598 3.00089C17.017 3.1954 17.1288 3.42259 17.1869 3.66585C17.2447 3.90812 17.2479 4.1602 17.1962 4.40383L15.3919 10.8444H13.9414L12.136 4.40383C12.0843 4.16012 12.0875 3.90794 12.1454 3.6656C12.2036 3.42226 12.3154 3.19501 12.4727 3.00048C12.6301 2.80595 12.8289 2.64908 13.0547 2.54133C13.2805 2.43359 13.5276 2.37771 13.7777 2.37778ZM25.1437 23.3104C25.3291 23.1249 25.4333 22.8734 25.4333 22.6111C25.4333 22.3488 25.3291 22.0973 25.1437 21.9119C24.9582 21.7264 24.7067 21.6222 24.4444 21.6222H4.88889C4.62662 21.6222 4.37509 21.7264 4.18964 21.9119C4.00419 22.0973 3.9 22.3488 3.9 22.6111C3.9 22.8734 4.00419 23.1249 4.18964 23.3104C4.37509 23.4958 4.62662 23.6 4.88889 23.6H24.4444C24.7067 23.6 24.9582 23.4958 25.1437 23.3104ZM5.87778 12.8222H23.4556V17.0667H5.87778V12.8222Z" fill="black" stroke="black" stroke-width="0.2"/>
</svg>
