<svg width="30" height="24" viewBox="0 0 30 24" fill="none" xmlns="http://www.w3.org/2000/svg">
    <path d="M18.2223 13.9259C18.2223 14.1616 18.1287 14.3877 17.962 14.5544C17.7953 14.7211 17.5692 14.8148 17.3334 14.8148H10.2223C9.98651 14.8148 9.76042 14.7211 9.59372 14.5544C9.42702 14.3877 9.33337 14.1616 9.33337 13.9259C9.33337 13.6901 9.42702 13.464 9.59372 13.2973C9.76042 13.1306 9.98651 13.037 10.2223 13.037H17.3334C17.5692 13.037 17.7953 13.1306 17.962 13.2973C18.1287 13.464 18.2223 13.6901 18.2223 13.9259ZM17.3334 9.48138H10.2223C9.98651 9.48138 9.76042 9.57503 9.59372 9.74173C9.42702 9.90843 9.33337 10.1345 9.33337 10.3703C9.33337 10.606 9.42702 10.8321 9.59372 10.9988C9.76042 11.1655 9.98651 11.2592 10.2223 11.2592H17.3334C17.5692 11.2592 17.7953 11.1655 17.962 10.9988C18.1287 10.8321 18.2223 10.606 18.2223 10.3703C18.2223 10.1345 18.1287 9.90843 17.962 9.74173C17.7953 9.57503 17.5692 9.48138 17.3334 9.48138ZM23.5557 3.55542V22.2222C23.5557 22.6937 23.3684 23.1459 23.035 23.4793C22.7016 23.8127 22.2494 24 21.7779 24H5.77779C5.30629 24 4.8541 23.8127 4.5207 23.4793C4.1873 23.1459 4 22.6937 4 22.2222V3.55542C4 3.08392 4.1873 2.63173 4.5207 2.29833C4.8541 1.96493 5.30629 1.77763 5.77779 1.77763H9.80671C10.3062 1.21843 10.9181 0.771019 11.6024 0.464685C12.2868 0.15835 13.0281 0 13.7778 0C14.5276 0 15.2689 0.15835 15.9533 0.464685C16.6376 0.771019 17.2495 1.21843 17.749 1.77763H21.7779C22.2494 1.77763 22.7016 1.96493 23.035 2.29833C23.3684 2.63173 23.5557 3.08392 23.5557 3.55542ZM10.2223 5.33321H17.3334C17.3334 4.39021 16.9588 3.48583 16.292 2.81903C15.6252 2.15223 14.7208 1.77763 13.7778 1.77763C12.8348 1.77763 11.9305 2.15223 11.2637 2.81903C10.5969 3.48583 10.2223 4.39021 10.2223 5.33321ZM21.7779 3.55542H18.8057C19.0079 4.12633 19.1112 4.72755 19.1112 5.33321V6.2221C19.1112 6.45785 19.0176 6.68395 18.8509 6.85065C18.6842 7.01735 18.4581 7.111 18.2223 7.111H9.33337C9.09762 7.111 8.87153 7.01735 8.70483 6.85065C8.53813 6.68395 8.44447 6.45785 8.44447 6.2221V5.33321C8.4445 4.72755 8.54783 4.12633 8.75003 3.55542H5.77779V22.2222H21.7779V3.55542Z" fill="black"/>
    <path d="M17.962 18.1101C18.1287 17.9434 18.2223 17.7173 18.2223 17.4816C18.2223 17.2458 18.1287 17.0198 17.962 16.8531C17.7953 16.6864 17.5692 16.5927 17.3334 16.5927H10.2223C9.98651 16.5927 9.76042 16.6864 9.59372 16.8531C9.42702 17.0198 9.33337 17.2458 9.33337 17.4816C9.33337 17.7173 9.42702 17.9434 9.59372 18.1101C9.76042 18.2768 9.98651 18.3705 10.2223 18.3705H17.3334C17.5692 18.3705 17.7953 18.2768 17.962 18.1101Z" fill="black"/>
</svg>
