<svg width="30" height="24" viewBox="0 0 30 24" fill="none" xmlns="http://www.w3.org/2000/svg">
<path d="M15.2701 23.5231C15.3916 23.4903 18.0318 22.7522 20.6927 20.5787L20.6929 20.5786C23.156 18.5573 26.1 14.8702 26.1 8.79199V2.37533C26.1 1.86257 25.8963 1.37082 25.5337 1.00825C25.1712 0.645682 24.6794 0.441992 24.1667 0.441992H5.83333C5.32058 0.441992 4.82883 0.645682 4.46626 1.00825C4.10369 1.37082 3.9 1.86257 3.9 2.37533V8.79199C3.9 14.8702 6.84398 18.5574 9.31407 20.5787L9.31409 20.5787C11.971 22.7517 14.614 23.49 14.7367 23.5231C14.9113 23.5706 15.0955 23.5706 15.2701 23.5231ZM15.2701 23.5231L15.2441 23.4266L15.2703 23.5231C15.2703 23.5231 15.2702 23.5231 15.2701 23.5231ZM11.1359 10.8228L11.1359 10.8227C10.9452 10.632 10.6864 10.5248 10.4167 10.5248C10.1469 10.5248 9.88817 10.632 9.69741 10.8227C9.50666 11.0135 9.39949 11.2722 9.39949 11.542C9.39949 11.8118 9.50666 12.0705 9.69741 12.2612L12.4474 15.0112C12.4474 15.0112 12.4474 15.0112 12.4474 15.0112C12.5418 15.1058 12.6539 15.1807 12.7773 15.2319C12.9008 15.283 13.0331 15.3094 13.1667 15.3094C13.3003 15.3094 13.4326 15.283 13.556 15.2319C13.6794 15.1807 13.7915 15.1058 13.8859 15.0112C13.8859 15.0112 13.8859 15.0112 13.886 15.0112L20.3026 8.59458C20.397 8.50012 20.472 8.38799 20.5231 8.26458C20.5742 8.14117 20.6005 8.0089 20.6005 7.87533C20.6005 7.74175 20.5742 7.60948 20.5231 7.48607C20.472 7.36266 20.397 7.25053 20.3026 7.15607C20.2081 7.06162 20.096 6.98669 19.9726 6.93558C19.8492 6.88446 19.7169 6.85815 19.5833 6.85815C19.4498 6.85815 19.3175 6.88446 19.1941 6.93558C19.0707 6.98669 18.9585 7.06162 18.8641 7.15607L18.8641 7.15608L13.1667 12.8546L11.1359 10.8228ZM24.0667 8.79199C24.0667 13.0119 22.5132 16.4306 19.4509 18.9609C18.1253 20.0525 16.6189 20.9036 14.9999 21.4758C13.4024 20.9136 11.9148 20.0777 10.6037 19.0053C7.50494 16.4704 5.93333 13.038 5.93333 8.79199V2.47533H24.0667V8.79199Z" fill="black" stroke="black" stroke-width="0.2"/>
</svg>
