<svg width="27" height="31" viewBox="0 0 27 31" fill="none" xmlns="http://www.w3.org/2000/svg">
  <path fill-rule="evenodd" clip-rule="evenodd" d="M13.5361 0C14.0533 3.98968e-05 14.5494 0.205628 14.915 0.571289L21.3291 6.98535C21.6948 7.35101 21.9004 7.84714 21.9004 8.36426V15.9502H20V8.90039H15.9502C14.321 8.90039 13 7.57944 13 5.9502V1.90039H1.9502C1.92258 1.90039 1.90039 1.92258 1.90039 1.9502V24.9502C1.90039 24.9778 1.92258 25 1.9502 25H11.9502V26.9004H1.9502C0.87324 26.9004 0 26.0272 0 24.9502V1.9502C2.57681e-07 0.873241 0.87324 0 1.9502 0H13.5361ZM14.9004 5.9502C14.9004 6.53009 15.3703 7 15.9502 7H18.6562L14.9004 3.24414V5.9502Z" fill="black"/>
  <path fill-rule="evenodd" clip-rule="evenodd" d="M18.5576 16.8252C20.1464 16.8252 21.4983 17.3793 22.6055 18.4863C23.7129 19.5938 24.2676 20.9538 24.2676 22.5576C24.2676 23.2275 24.1581 23.8675 23.9395 24.4766C23.7354 25.0449 23.4607 25.5457 23.1182 25.9805L26.0391 28.9004L26.127 28.9893L24.9893 30.127L24.9004 30.0391L21.958 27.1182C21.5094 27.4751 21.0009 27.7572 20.4307 27.9619C19.8222 28.1803 19.1977 28.29 18.5576 28.29C16.9538 28.29 15.5938 27.7354 14.4863 26.6279C13.3792 25.5206 12.8252 24.1612 12.8252 22.5576C12.8252 20.9688 13.3795 19.613 14.4863 18.498C15.5937 17.3832 16.9536 16.8252 18.5576 16.8252ZM18.5576 18.4482C17.3999 18.4482 16.4286 18.8479 15.6367 19.6475C14.8438 20.4476 14.4482 21.4154 14.4482 22.5576C14.4482 23.6999 14.8438 24.6676 15.6367 25.4678C16.4286 26.2673 17.3999 26.667 18.5576 26.667C19.6996 26.667 20.6632 26.2677 21.4561 25.4678L21.5996 25.3154C22.296 24.5456 22.6435 23.6286 22.6436 22.5576C22.6436 21.4864 22.2963 20.5688 21.5996 19.7988L21.4561 19.6475C20.6632 18.8475 19.6996 18.4482 18.5576 18.4482Z" fill="black"/>
</svg>
