<svg width="27" height="30" viewBox="0 0 27 30" fill="none" xmlns="http://www.w3.org/2000/svg">
  <path fill-rule="evenodd" clip-rule="evenodd" d="M13.5361 0C14.0533 3.98968e-05 14.5494 0.205628 14.915 0.571289L21.3291 6.98535C21.6948 7.35101 21.9004 7.84714 21.9004 8.36426V15.9502H20V8.90039H15.9502C14.321 8.90039 13 7.57944 13 5.9502V1.90039H1.9502C1.92258 1.90039 1.90039 1.92258 1.90039 1.9502V24.9502C1.90039 24.9778 1.92258 25 1.9502 25H14.9502V26.9004H1.9502C0.873241 26.9004 0 26.0272 0 24.9502V1.9502C2.57681e-07 0.873241 0.87324 0 1.9502 0H13.5361ZM14.9004 5.9502C14.9004 6.53009 15.3703 7 15.9502 7H18.6562L14.9004 3.24414V5.9502Z" fill="#0B0C0C"/>
  <path d="M15.3644 22.607L22.4355 29.6781L26.6781 25.4355L19.607 18.3644L15.3644 22.607Z" fill="#0B0C0C"/>
  <path d="M13.9502 16.9502L14.7647 21.439L18.439 17.7647L13.9502 16.9502Z" fill="#0B0C0C"/>
</svg>
